<?xml version="1.0" standalone="no"?>
<!DOCTYPE svg PUBLIC "-//W3C//DTD SVG 20010904//EN"
 "http://www.w3.org/TR/2001/REC-SVG-20010904/DTD/svg10.dtd">
<svg version="1.0" xmlns="http://www.w3.org/2000/svg"
 width="670.000000pt" height="670.000000pt" viewBox="0 0 670.000000 670.000000"
 preserveAspectRatio="xMidYMid meet">
<metadata>
Created by potrace 1.11, written by Peter Selinger 2001-2013
</metadata>
<g transform="translate(0.000000,670.000000) scale(0.100000,-0.100000)"
fill="#000000" stroke="none">
<path d="M4488 5015 c-2 -1 -34 -5 -73 -8 -75 -6 -215 -46 -280 -80 -43 -22
-134 -77 -150 -90 -39 -30 -112 -71 -148 -82 -48 -14 -96 -13 -183 5 -51 10
-66 10 -97 -4 -33 -13 -43 -26 -81 -108 -24 -51 -58 -110 -76 -131 -35 -40
-55 -53 -383 -248 -114 -68 -218 -131 -231 -139 -13 -8 -48 -30 -77 -48 -30
-18 -63 -38 -74 -45 -40 -25 -310 -202 -320 -209 -5 -5 -50 -38 -100 -73 -49
-35 -94 -68 -100 -72 -5 -5 -32 -24 -60 -43 -27 -19 -52 -38 -55 -41 -9 -11
-194 -133 -230 -152 -19 -11 -72 -44 -118 -74 -248 -165 -353 -340 -353 -585
0 -121 25 -214 102 -386 20 -44 123 -226 140 -246 5 -6 30 -40 56 -75 101
-137 255 -272 377 -330 120 -56 181 -64 400 -51 32 2 201 68 263 103 84 48 95
55 636 415 271 180 555 367 632 415 167 104 148 91 265 169 92 61 118 79 145
106 8 6 18 12 23 12 6 0 12 4 14 8 2 5 30 26 62 46 136 87 256 122 376 111
127 -12 143 -11 146 5 1 8 5 33 9 54 4 22 11 50 16 63 5 13 6 23 3 23 -4 0 -1
7 6 15 7 8 10 15 7 15 -11 0 32 90 68 143 19 29 74 93 121 142 162 168 209
244 222 357 16 136 -11 221 -123 393 -88 136 -125 193 -145 225 -8 14 -30 50
-48 80 -18 30 -38 64 -45 75 -108 179 -229 277 -392 319 -55 14 -141 26 -147
21z"/>
</g>
</svg>
